<?xml version="1.0" encoding="UTF-8" ?>

<svg
   xmlns:dc="http://purl.org/dc/elements/1.1/"
   xmlns:cc="http://creativecommons.org/ns#"
   xmlns:rdf="http://www.w3.org/1999/02/22-rdf-syntax-ns#"
   xmlns:svg="http://www.w3.org/2000/svg"
   xmlns="http://www.w3.org/2000/svg"
   xmlns:sodipodi="http://sodipodi.sourceforge.net/DTD/sodipodi-0.dtd"
   xmlns:inkscape="http://www.inkscape.org/namespaces/inkscape"
   width="278.21896"
   height="298.71808"
   id="svg3267"
   version="1.1"
   inkscape:version="0.48.4 r9939"
   sodipodi:docname="logo-incaya.svg">

  <g
     inkscape:label="Calque 1"
     inkscape:groupmode="layer"
     id="layer1"
     transform="translate(-192.3191,-277.28885)">
    <path
       sodipodi:nodetypes="ccccccccccccccccc"
       style="fill:#0fd1ff;fill-opacity:1;stroke:none"
       d="m 402.48597,295.6135 c -90.98308,-41.9296 -178.27956,-3.6328 -210.16686,32.3422 25.84887,26.9593 78.1088,45.683 112.30483,61.6582 -26.01977,6.5792 -66.65812,24.9367 -79.87305,40.5269 23.42063,24.4268 75.3655,38.7352 106.32908,53.5236 -23.81738,5.6539 -60.02628,22.74081 -68.58836,34.07067 26.14266,27.26569 63.90653,46.51867 97.29647,58.14025 3.70805,1.08746 7.43209,-4.8482 3.45905,-7.36716 -35.47245,-20.93104 -47.00444,-48.79862 17.14657,-36.52095 7.37394,1.67504 26.95666,-39.66421 19.9134,-42.41441 -22.30777,-7.9237 -44.03924,-9.4697 -63.6293,-7.0107 -33.04703,-27.679 -26.96118,-54.4516 78.79951,-25.3001 8.1518,1.7667 29.18974,-44.3746 22.82891,-48.6245 -43.93761,-25.4872 -87.72277,-29.8167 -124.94008,-23.3363 -42.38039,-34.4071 -29.39714,-68.6236 140.65365,-10.1322 4.52788,1.3747 20.87118,-26.8851 15.41695,-32.8366 -22.02846,-21.2184 -44.59802,-36.4172 -66.95077,-46.7191 z"
       id="path3183"
       inkscape:connector-curvature="0" />
  </g>
</svg>
